<svg xmlns="http://www.w3.org/2000/svg" viewBox="0 0 96 96" shape-rendering="crispEdges" style="image-rendering:pixelated;background:#0a0812">
  <!-- ─────────── Кот под луной ─────────── -->

  <defs>
    <radialGradient id="moonGlow" cx="50%" cy="50%" r="50%">
      <stop offset="0%"   stop-color="#fffce8" stop-opacity="0.55"/>
      <stop offset="40%"  stop-color="#fff080" stop-opacity="0.25"/>
      <stop offset="100%" stop-color="#fff080" stop-opacity="0"/>
    </radialGradient>
  </defs>

  <!-- ── Ночное небо: звёзды ── -->
  <rect x="6"  y="8"  width="1" height="1" fill="#fffce8"/>
  <rect x="14" y="4"  width="1" height="1" fill="#fff080"/>
  <rect x="22" y="10" width="1" height="1" fill="#fffce8" fill-opacity="0.8"/>
  <rect x="30" y="6"  width="1" height="1" fill="#fffce8"/>
  <rect x="42" y="3"  width="1" height="1" fill="#fff080" fill-opacity="0.7"/>
  <rect x="58" y="8"  width="1" height="1" fill="#fffce8"/>
  <rect x="66" y="4"  width="1" height="1" fill="#fff080" fill-opacity="0.6"/>
  <rect x="80" y="10" width="1" height="1" fill="#fffce8" fill-opacity="0.9"/>
  <rect x="88" y="6"  width="1" height="1" fill="#fff080"/>
  <rect x="10" y="18" width="1" height="1" fill="#fffce8" fill-opacity="0.6"/>
  <rect x="26" y="22" width="1" height="1" fill="#fff080" fill-opacity="0.7"/>
  <rect x="52" y="18" width="1" height="1" fill="#fffce8" fill-opacity="0.5"/>
  <rect x="74" y="24" width="1" height="1" fill="#fff080" fill-opacity="0.6"/>
  <rect x="86" y="20" width="1" height="1" fill="#fffce8" fill-opacity="0.7"/>

  <!-- ── Мерцание крупных звёзд (плюсик) ── -->
  <rect x="14" y="3"  width="1" height="3" fill="#fffce8" fill-opacity="0.6"/>
  <rect x="13" y="4"  width="3" height="1" fill="#fffce8" fill-opacity="0.6"/>
  <rect x="66" y="3"  width="1" height="3" fill="#fffce8" fill-opacity="0.5"/>
  <rect x="65" y="4"  width="3" height="1" fill="#fffce8" fill-opacity="0.5"/>

  <!-- ── Ореол луны ── -->
  <circle cx="68" cy="22" r="22" fill="url(#moonGlow)"/>

  <!-- ── Луна (пиксельная, полумесяц) ── -->
  <rect x="62" y="14" width="12" height="2" fill="#fff080"/>
  <rect x="60" y="16" width="16" height="2" fill="#fff080"/>
  <rect x="58" y="18" width="18" height="2" fill="#fff080"/>
  <rect x="58" y="20" width="18" height="2" fill="#fff080"/>
  <rect x="58" y="22" width="18" height="2" fill="#fff080"/>
  <rect x="58" y="24" width="18" height="2" fill="#fff080"/>
  <rect x="60" y="26" width="16" height="2" fill="#fff080"/>
  <rect x="62" y="28" width="12" height="2" fill="#fff080"/>
  <!-- Тень полумесяца -->
  <rect x="64" y="16" width="12" height="2" fill="#0a0812"/>
  <rect x="66" y="18" width="12" height="2" fill="#0a0812"/>
  <rect x="66" y="20" width="14" height="2" fill="#0a0812"/>
  <rect x="66" y="22" width="14" height="2" fill="#0a0812"/>
  <rect x="66" y="24" width="12" height="2" fill="#0a0812"/>
  <rect x="66" y="26" width="10" height="2" fill="#0a0812"/>
  <!-- Блики на светлой стороне -->
  <rect x="60" y="18" width="2" height="2" fill="#fffce8"/>
  <rect x="58" y="20" width="2" height="4" fill="#fffce8"/>
  <rect x="60" y="24" width="2" height="2" fill="#fffce8"/>

  <!-- ── Силуэт горы вдалеке ── -->
  <rect x="0"  y="58" width="10" height="1" fill="#1a1428"/>
  <rect x="0"  y="59" width="16" height="1" fill="#1a1428"/>
  <rect x="0"  y="60" width="22" height="1" fill="#1a1428"/>
  <rect x="0"  y="61" width="28" height="1" fill="#1a1428"/>
  <rect x="20" y="56" width="6"  height="1" fill="#1a1428"/>
  <rect x="18" y="57" width="10" height="1" fill="#1a1428"/>
  <rect x="16" y="58" width="14" height="1" fill="#1a1428"/>
  <rect x="14" y="59" width="18" height="1" fill="#1a1428"/>

  <rect x="70" y="54" width="4"  height="1" fill="#1a1428"/>
  <rect x="68" y="55" width="8"  height="1" fill="#1a1428"/>
  <rect x="66" y="56" width="12" height="1" fill="#1a1428"/>
  <rect x="64" y="57" width="16" height="1" fill="#1a1428"/>
  <rect x="62" y="58" width="22" height="1" fill="#1a1428"/>
  <rect x="60" y="59" width="30" height="1" fill="#1a1428"/>
  <rect x="58" y="60" width="38" height="1" fill="#1a1428"/>
  <rect x="56" y="61" width="40" height="1" fill="#1a1428"/>

  <!-- ── Трава-горизонт ── -->
  <rect x="0" y="62" width="96" height="2" fill="#2a1f3a"/>
  <rect x="0" y="64" width="96" height="2" fill="#3a2a55"/>

  <!-- ── Бамбук слева ── -->
  <rect x="4"  y="30" width="2" height="32" fill="#3a5028"/>
  <rect x="4"  y="34" width="2" height="1"  fill="#1a2818"/>
  <rect x="4"  y="44" width="2" height="1"  fill="#1a2818"/>
  <rect x="4"  y="54" width="2" height="1"  fill="#1a2818"/>
  <rect x="6"  y="36" width="3" height="1"  fill="#4a6028"/>
  <rect x="9"  y="35" width="2" height="1"  fill="#4a6028"/>
  <rect x="2"  y="42" width="2" height="1"  fill="#4a6028"/>
  <rect x="6"  y="48" width="4" height="1"  fill="#4a6028"/>

  <rect x="12" y="36" width="2" height="26" fill="#3a5028"/>
  <rect x="12" y="42" width="2" height="1"  fill="#1a2818"/>
  <rect x="12" y="52" width="2" height="1"  fill="#1a2818"/>
  <rect x="14" y="40" width="3" height="1"  fill="#4a6028"/>
  <rect x="10" y="48" width="2" height="1"  fill="#4a6028"/>

  <!-- ── Тень под котом ── -->
  <rect x="34" y="80" width="32" height="2" fill="#0a0812" fill-opacity="0.6"/>
  <rect x="36" y="82" width="28" height="1" fill="#0a0812" fill-opacity="0.4"/>

  <!-- ── Кот (сидит, хвост обвит, смотрит на луну) ── -->
  <!-- Уши -->
  <rect x="36" y="58" width="4" height="4" fill="#2a1f3a"/>
  <rect x="56" y="58" width="4" height="4" fill="#2a1f3a"/>
  <rect x="38" y="60" width="2" height="2" fill="#3a2a55"/>
  <rect x="56" y="60" width="2" height="2" fill="#3a2a55"/>

  <!-- Голова -->
  <rect x="36" y="62" width="24" height="10" fill="#2a1f3a"/>
  <rect x="34" y="64" width="28" height="6"  fill="#2a1f3a"/>

  <!-- Глаза (жёлтые, светящиеся) -->
  <rect x="39" y="66" width="3" height="3" fill="#ffdc50"/>
  <rect x="54" y="66" width="3" height="3" fill="#ffdc50"/>
  <rect x="40" y="67" width="1" height="2" fill="#0a0812"/>
  <rect x="55" y="67" width="1" height="2" fill="#0a0812"/>
  <rect x="41" y="66" width="1" height="1" fill="#fffce8"/>
  <rect x="56" y="66" width="1" height="1" fill="#fffce8"/>

  <!-- Носик -->
  <rect x="47" y="69" width="2" height="1" fill="#ff80a0"/>

  <!-- Усы -->
  <rect x="32" y="68" width="4" height="1" fill="#fffce8" fill-opacity="0.6"/>
  <rect x="60" y="68" width="4" height="1" fill="#fffce8" fill-opacity="0.6"/>
  <rect x="32" y="70" width="4" height="1" fill="#fffce8" fill-opacity="0.4"/>
  <rect x="60" y="70" width="4" height="1" fill="#fffce8" fill-opacity="0.4"/>

  <!-- Тело -->
  <rect x="34" y="72" width="28" height="10" fill="#2a1f3a"/>
  <rect x="32" y="74" width="32" height="8"  fill="#2a1f3a"/>

  <!-- Лапки передние -->
  <rect x="36" y="78" width="4" height="4" fill="#3a2a55"/>
  <rect x="56" y="78" width="4" height="4" fill="#3a2a55"/>
  <rect x="37" y="80" width="2" height="2" fill="#4a3a6a"/>
  <rect x="57" y="80" width="2" height="2" fill="#4a3a6a"/>

  <!-- Хвост, обвитый вокруг лап -->
  <rect x="62" y="76" width="4" height="2" fill="#2a1f3a"/>
  <rect x="64" y="74" width="4" height="2" fill="#2a1f3a"/>
  <rect x="66" y="72" width="4" height="2" fill="#2a1f3a"/>
  <rect x="68" y="74" width="2" height="4" fill="#2a1f3a"/>
  <rect x="66" y="76" width="2" height="2" fill="#3a2a55"/>

  <!-- ── Светлячок рядом с котом ── -->
  <circle cx="24" cy="74" r="5" fill="#fff080" fill-opacity="0.35"/>
  <rect x="23" y="73" width="2" height="2" fill="#fffce8"/>

  <!-- ── Ещё один светлячок вдалеке ── -->
  <circle cx="82" cy="50" r="3" fill="#fff080" fill-opacity="0.35"/>
  <rect x="82" y="50" width="1" height="1" fill="#fffce8"/>

  <!-- ── Листок, падающий ── -->
  <rect x="48" y="42" width="2" height="1" fill="#4a6028"/>
  <rect x="48" y="43" width="1" height="1" fill="#3a5028"/>
</svg>
